<?xml version="1.0" encoding="UTF-8" standalone="no"?>
<!DOCTYPE svg PUBLIC "-//W3C//DTD SVG 1.1//EN" "http://www.w3.org/Graphics/SVG/1.1/DTD/svg11.dtd">
<svg version="1.1" xmlns="http://www.w3.org/2000/svg" xmlns:xlink="http://www.w3.org/1999/xlink" preserveAspectRatio="xMidYMid meet" viewBox="-1 -1 108.99999999999991 109.04511627906979" width="105" height="105.05"><defs><path d="M56.8 0.17L58.92 0.39L61.01 0.69L63.08 1.07L65.11 1.53L67.11 2.07L69.09 2.68L71.02 3.37L72.93 4.13L74.79 4.96L76.62 5.87L78.4 6.84L80.15 7.87L81.84 8.98L83.5 10.14L85.1 11.36L86.66 12.65L88.16 13.99L89.62 15.39L91.01 16.84L92.36 18.35L93.64 19.91L94.86 21.51L96.03 23.17L97.13 24.86L98.17 26.61L99.14 28.39L100.04 30.22L100.87 32.09L101.63 33.99L102.32 35.93L102.94 37.9L103.47 39.91L103.93 41.94L104.31 44.01L104.61 46.1L104.83 48.22L104.96 50.36L105 52.52L104.96 54.69L104.83 56.83L104.61 58.95L104.31 61.04L103.93 63.1L103.47 65.14L102.94 67.14L102.32 69.12L101.63 71.06L100.87 72.96L100.04 74.82L99.14 76.65L98.17 78.44L97.13 80.18L96.03 81.88L94.86 83.53L93.64 85.14L92.36 86.7L91.01 88.2L89.62 89.65L88.16 91.05L86.66 92.4L85.1 93.68L83.5 94.91L81.84 96.07L80.15 97.17L78.4 98.21L76.62 99.18L74.79 100.08L72.93 100.91L71.02 101.68L69.09 102.37L67.11 102.98L65.11 103.52L63.08 103.98L61.01 104.36L58.92 104.66L56.8 104.87L54.66 105L52.5 105.05L50.34 105L48.2 104.87L46.08 104.66L43.99 104.36L41.92 103.98L39.89 103.52L37.89 102.98L35.91 102.37L33.98 101.68L32.07 100.91L30.21 100.08L28.38 99.18L26.6 98.21L24.85 97.17L23.16 96.07L21.5 94.91L19.9 93.68L18.34 92.4L16.84 91.05L15.38 89.65L13.99 88.2L12.64 86.7L11.36 85.14L10.14 83.53L8.97 81.88L7.87 80.18L6.83 78.44L5.86 76.65L4.96 74.82L4.13 72.96L3.37 71.06L2.68 69.12L2.06 67.14L1.53 65.14L1.07 63.1L0.69 61.04L0.39 58.95L0.17 56.83L0.04 54.69L0 52.52L0.04 50.36L0.17 48.22L0.39 46.1L0.69 44.01L1.07 41.94L1.53 39.91L2.06 37.9L2.68 35.93L3.37 33.99L4.13 32.09L4.96 30.22L5.86 28.39L6.83 26.61L7.87 24.86L8.97 23.17L10.14 21.51L11.36 19.91L12.64 18.35L13.99 16.84L15.38 15.39L16.84 13.99L18.34 12.65L19.9 11.36L21.5 10.14L23.16 8.98L24.85 7.87L26.6 6.84L28.38 5.87L30.21 4.96L32.07 4.13L33.98 3.37L35.91 2.68L37.89 2.07L39.89 1.53L41.92 1.07L43.99 0.69L46.08 0.39L48.2 0.17L50.34 0.04L52.5 0L54.66 0.04L56.8 0.17ZM22.5 43.05L37.5 58.42L33.96 80.13L52.5 69.88L71.04 80.13L67.5 58.42L82.5 43.05L61.77 39.88L52.5 20.13L43.23 39.88L22.5 43.05Z" id="ePTjNw34i"></path></defs><g><g><use xlink:href="#ePTjNw34i" opacity="1" fill="#bf5d3e" fill-opacity="1"></use></g></g></svg>